# xmcd CD database file
# Copyright (C) 1993-1996 Ti Kan
#
# Track frame offsets:
#	150
#	13712
#	28187
#	40462
#	54530
#	69717
#	86540
#	98560
#	112020
#	121287
#	142157
#	155387
#	170352
#	183237
#	196362
#	208987
#	226182
#	241862
#	255505
#	272037
#
# Disc length: 3782 seconds
#
# Revision: 1
# Processed by: cddbd v1.4b41PL1 Copyright (c) Steve Scherf et al.
# Submitted via: EasyCD2 v3.00 - Copyright (c) 1997 Greg Leichner
#
DISCID=1a0ec414
DTITLE=Various, Country - The Best Country Hits of the 70's and 80's, Disk 1
DYEAR=1900
DGENRE=
TTITLE0=Here's Some Love, T. Tucker
TTITLE1=Tulsa Time, D. Williams
TTITLE2=Out of My Head and back in My Bed, L. Lynn
TTITLE3=Ramblin' Fever, M. Haggard
TTITLE4=I'm Not Lisa, J. Colter
TTITLE5=(Ghost) Riders in the Sky, J. Cash
TTITLE6=Jolene, D. Parton
TTITLE7=Come Live With Me, R. Clark
TTITLE8=Kiss an Angel Good Mornin', C. Pride
TTITLE9=Big Four Poster Bed, B Lee
TTITLE10=Behind Closed Doors, C. Rich
TTITLE11=Darlin', B Mandrell
TTITLE12=Good Woman Blues, M. Tillis
TTITLE13=Sometimes, B. Anderson and M.L. Turner
TTITLE14=Funny Face, D. Fargo
TTITLE15=For the Good Times, R. Price
TTITLE16=Why Me? K. Kristofferson
TTITLE17=Twentieth Certury Drifter, M. Robbins
TTITLE18=Save the Last Dance for Me, E. Harris
TTITLE19=Before the Next Teardrop Falls, F. Fender
EXTD=
EXTT0=
EXTT1=
EXTT2=
EXTT3=
EXTT4=
EXTT5=
EXTT6=
EXTT7=
EXTT8=
EXTT9=
EXTT10=
EXTT11=
EXTT12=
EXTT13=
EXTT14=
EXTT15=
EXTT16=
EXTT17=
EXTT18=
EXTT19=
PLAYORDER=
